Coordinates
version=1
nRows=14
nColumns=36
inDegrees=yes

Units are S.I. units (second, meters, Newtons, ...)
If the header above contains a line with 'inDegrees', this indicates whether rotational values are in degrees (yes) or radians (no).

endheader
time	pelvis_tilt	pelvis_list	pelvis_rotation	pelvis_tx	pelvis_ty	pelvis_tz	hip_flexion_r	hip_adduction_r	hip_rotation_r	knee_angle_r	knee_angle_r_beta	ankle_angle_r	subtalar_angle_r	mtp_angle_r	hip_flexion_l	hip_adduction_l	hip_rotation_l	knee_angle_l	knee_angle_l_beta	ankle_angle_l	subtalar_angle_l	mtp_angle_l	lumbar_extension	lumbar_bending	lumbar_rotation	arm_flex_r	arm_add_r	arm_rot_r	elbow_flex_r	pro_sup_r	arm_flex_l	arm_add_l	arm_rot_l	elbow_flex_l	pro_sup_l
      0.00000000	     -1.37852320	      0.13615147	      4.71997170	     -0.07053748	      1.21743503	      0.27061445	      3.48744049	     -0.87392582	     -1.04186094	      5.92622893	      0.10343221	     10.78313613	     -6.14707782	     -6.75438427	      2.07860549	     -0.40706432	     -2.80897831	      7.67404168	      0.13393729	     10.14324828	     -6.43505442	     -6.75438427	     -2.17740128	     -0.05851737	      2.64996668	      0.04998646	     -7.91648877	      3.61934883	     19.67588437	     90.80300029	     -0.57297298	     -8.21286014	      1.98707984	     19.01783496	     90.81532070
      0.01666670	     -1.67463245	      0.14907097	      4.37475320	     -0.08571916	      1.21749293	      0.27041508	      3.78808162	     -0.70483432	     -2.03912225	      4.57735434	      0.07988990	     11.02474147	     -6.09768887	     -6.76464937	      2.57420442	     -0.28081185	     -4.63395496	      6.62130776	      0.11556362	      9.80178131	     -6.42585725	     -6.76464937	     -2.04714328	      0.14343343	      3.61496642	      0.50460693	     -8.33289158	      3.81399502	     19.18284919	     91.20806708	     -0.22229633	     -8.28473782	      1.73566690	     19.16295327	     90.93004665
      0.03333330	     -0.91560589	      0.26207847	      4.65298076	     -0.07098421	      1.21696757	      0.26912725	      2.58727781	     -0.72751242	     -2.95186046	      4.33308134	      0.07562654	     11.52685753	     -5.85347178	     -7.07522066	      1.48395762	     -0.11069223	     -6.78836535	      5.96336409	      0.10408034	      9.04442188	     -6.35615927	     -7.07522066	     -2.77645854	      0.04688821	      3.38806341	      0.68287062	     -8.51421640	      4.20193621	     18.56007800	     99.59410607	      0.01551396	     -7.89205278	     -1.70824580	     18.85499622	     96.24527104
      0.05000000	     -0.25101036	      0.37984924	      4.89689202	     -0.07288425	      1.22075225	      0.26849800	      1.85155464	     -0.84104637	     -4.25508399	      4.27006729	      0.07452673	     11.36589815	     -5.61627451	     -7.13967576	      0.75948925	      0.05714007	     -7.92982709	      5.67358404	      0.09902272	      8.66167571	     -6.31787661	     -7.13967576	     -3.52456405	      0.07168542	      3.27044799	      0.62688292	     -8.63247791	      4.73442787	     18.99384900	     97.67848538	      0.11473279	     -7.81527279	     -1.63523270	     19.24287306	     93.99057314
      0.06666670	      0.03773551	      0.47824488	      5.02707869	     -0.07406871	      1.22363469	      0.26786608	      1.50270115	     -0.94441389	     -5.17616863	      4.29563285	      0.07497294	     11.10742426	     -5.70644397	     -7.13760136	      0.58855995	      0.18399497	     -8.94471698	      5.80192732	      0.10126273	      8.71459153	     -6.02416682	     -7.13760136	     -3.67124681	     -0.00600666	      3.26759323	      1.13769109	     -8.69664849	      5.97358481	     17.95483857	    100.68768783	      0.62343818	     -7.66130216	     -1.36579075	     18.15093898	     95.79997115
      0.08333330	      0.07785646	      0.62354725	      5.20228330	     -0.08358601	      1.22340021	      0.26479069	      1.70083353	     -1.12948686	     -5.95316654	      4.62650217	      0.08074770	     10.66259032	     -5.93513079	     -7.13976559	      0.77383487	      0.39218304	     -9.27454706	      5.97809741	      0.10433748	      8.53246467	     -6.03181861	     -7.13976559	     -3.96014464	     -0.13721174	      3.29444688	      1.33215728	     -8.61664905	      6.08843273	     17.94826930	    100.75983963	      0.90800000	     -7.66102185	     -1.34482479	     18.28075098	     95.84340404
      0.10000000	     -0.07880384	      0.69803465	      5.41510562	     -0.08402001	      1.22288099	      0.26483105	      1.98801563	     -1.24264401	     -6.58389867	      4.79090567	      0.08361708	     10.15343873	     -6.32211807	     -7.21853253	      1.21479546	      0.48966119	     -9.58891522	      6.25891743	      0.10923872	      8.49057320	     -5.97021480	     -7.21853253	     -3.95498278	     -0.23794705	      3.16309662	      1.83758207	     -8.65005483	      8.20511024	     17.17270498	     99.59679884	      1.05229244	     -7.72093152	     -0.43508823	     18.15509944	     94.71757838
      0.11666670	     -0.22742890	      0.80354613	      5.56973683	     -0.08418161	      1.22285223	      0.26487357	      2.26807721	     -1.35802628	     -6.79616085	      4.86255913	      0.08486767	      9.49318938	     -6.81661010	     -7.28908224	      1.54923663	      0.63697987	     -9.83800333	      6.31084314	      0.11014499	      8.31204045	     -5.89978515	     -7.28908224	     -4.00480180	     -0.35601786	      3.06863767	      2.12309848	     -8.64723228	      9.77032695	     16.88962404	     97.44176763	      1.13254004	     -7.76976596	      0.47241460	     18.04472480	     92.37683016
      0.13333330	     -0.33739174	      0.88966401	      5.66577506	     -0.08457540	      1.21969345	      0.26514753	      2.37279097	     -1.42995497	     -7.07867497	      4.76347425	      0.08313831	      9.07460766	     -7.02183210	     -7.33712103	      1.80528156	      0.77232039	     -9.98575677	      6.31228304	      0.11017012	      7.96923509	     -6.09650396	     -7.33712103	     -4.08661675	     -0.46357281	      3.13972885	      2.27087063	     -8.79807278	     11.14108806	     16.90575374	     98.84980623	      1.18275775	     -7.92041509	      1.43576543	     18.24746776	     93.58357098
      0.15000000	     -0.44638639	      0.91943753	      5.75155253	     -0.08431574	      1.21648245	      0.26506702	      2.38486793	     -1.39946072	     -6.93570421	      4.64694437	      0.08110448	      8.39839114	     -7.58841527	     -7.33910861	      1.94978453	      0.85636185	    -10.13384611	      6.17925817	      0.10784840	      7.71414640	     -6.27519754	     -7.33910861	     -4.13110284	     -0.50452981	      3.17298002	      2.25800577	     -8.72530039	     10.77592077	     17.29516378	     98.95387276	      1.16704804	     -7.92171626	      0.95175345	     18.51106492	     93.74865811
      0.16666670	     -0.52851838	      0.93542802	      5.81263636	     -0.08391833	      1.21625754	      0.26515869	      2.34547131	     -1.36367995	     -6.87441877	      4.54045402	      0.07924587	      8.08294256	     -7.72068695	     -7.35937736	      2.00111755	      0.93021554	    -10.28759593	      5.98814884	      0.10451291	      7.63961466	     -6.25223741	     -7.35937736	     -4.18871818	     -0.51000313	      3.24981200	      2.17073719	     -8.72726727	     10.88263514	     17.83740114	     97.56516762	      0.97497354	     -7.92409671	      0.94699905	     19.14819128	     92.24860470
      0.18333330	     -0.88157486	      0.88556892	      5.91429011	     -0.08387728	      1.21356504	      0.26525624	      2.63408162	     -1.27391872	     -6.87212225	      4.52694010	      0.07901001	      7.83337096	     -8.01831797	     -7.38890073	      2.39682267	      0.94112782	    -10.33655723	      5.92080835	      0.10333760	      7.61468377	     -6.18388565	     -7.38890073	     -3.74557406	     -0.48063396	      3.22882258	      2.22002663	     -8.76107531	     11.27642096	     17.83420688	    100.60845405	      0.88492450	     -8.03171375	      0.99036850	     19.04688595	     95.84595523
      0.20000000	     -0.97001829	      0.85501967	      6.03314464	     -0.08340993	      1.21940460	      0.26512456	      2.62110093	     -1.20348679	     -6.87041288	      4.58484530	      0.08002065	      7.85122566	     -8.04761288	     -7.38930223	      2.50414861	      0.90866323	    -10.45265550	      5.93150186	      0.10352424	      7.53491445	     -6.19168232	     -7.38930223	     -3.71995272	     -0.48154003	      3.18132495	      2.13999471	     -8.71811662	     11.27151457	     17.87009651	    100.56527123	      0.90233839	     -7.99949523	      0.98037421	     19.11499192	     95.81906569
      0.21666670	     -1.22102959	      0.81385439	      6.09871674	     -0.08263792	      1.21934837	      0.26495444	      2.69045917	     -1.11339830	     -6.73784259	      4.40552991	      0.07689100	      7.56115092	     -8.42070811	     -7.39626217	      2.64075270	      0.91962960	    -10.50026880	      5.72045520	      0.09984078	      7.30142623	     -6.13228903	     -7.39626217	     -3.36415556	     -0.45632884	      3.16613502	      2.07764994	     -8.63340752	     11.23210589	     17.88214633	    100.26001732	      0.70256372	     -8.00651383	      0.89522039	     19.26648347	     95.40924701
